<?xml version="1.0" encoding="utf-8"?>
<!-- Generator: Adobe Illustrator 26.3.0, SVG Export Plug-In . SVG Version: 6.00 Build 0)  -->
<svg version="1.1" id="Layer_1" xmlns="http://www.w3.org/2000/svg" xmlns:xlink="http://www.w3.org/1999/xlink" x="0px" y="0px"
	 viewBox="0 0 500 500" style="enable-background:new 0 0 500 500;" xml:space="preserve">
<g>
	<g>
		<polygon points="499.8,448.1 462.7,448.1 462.7,153.8 380.2,153.8 380.2,50 499.8,50 499.8,87.2 417.3,87.2 417.3,116.7 
			499.8,116.7 		"/>
	</g>
	<g>
		<path d="M417.3,450H241.7V116.7h121v37.1h-83.8v259h101.3v-111H294V182.7h123.3V450z M331.1,264.8h49v-45h-49V264.8z"/>
	</g>
	<g>
		<polygon points="220.6,450 127.4,450 127.4,50 361.6,50 361.6,87.2 164.5,87.2 164.5,412.8 183.4,412.8 183.4,348.3 260.3,348.3 
			260.3,385.4 220.6,385.4 		"/>
	</g>
	<g>
		<polygon points="106.5,450 0.2,450 0.2,412.8 69.4,412.8 69.4,50.1 106.5,50.1 		"/>
	</g>
</g>
</svg>
